PathFileType	4	(X/Y/Z)	C:/Users/beibeiliu/ov580/test_trc/User3\sequence.4_training_dense_right.trc
DataRate	CameraRate	NumFrames	NumMarkers	Units	OrigDataRate	OrigDataStartFrame	OrigNumFrames
120	120	24	19	mm	120	1	209
Frame#	Time	ThumbCMC			ThumbMCP			ThumbIP			ThumbTip			IndexMCP			IndexPIP			IndexTip			MiddleMCP			MiddlePIP			MiddleTip			RingMCP			RingPIP			RingTip			PinkyMCP			PinkyPIP			PinkyTip			BackHand1			BackHand2			BackHand3	
		X0	Y0	Z0	X1	Y1	Z1	X2	Y2	Z2	X3	Y3	Z3	X4	Y4	Z4	X5	Y5	Z5	X6	Y6	Z6	X7	Y7	Z7	X8	Y8	Z8	X9	Y9	Z9	X10	Y10	Z10	X11	Y11	Z11	X12	Y12	Z12	X13	Y13	Z13	X14	Y14	Z14	X15	Y15	Z15	X16	Y16	Z16	X17	Y17	Z17	X18	Y18	Z18	
0	0	104.922	-52.25	46.6259	79.3643	-58.4416	26.8667	62.1299	-66.7218	3.78317	49.7787	-74.1561	-12.11	120.543	-55.9174	-31.2375	113.904	-63.8606	-59.3434	106.655	-68.606	-79.3587	151.776	-55.4403	-34.2795	149.692	-60.3033	-61.8356	154.171	-68.9646	-92.3573	168.921	-61.896	-24.2571	175.676	-65.1202	-49.1429	185.119	-72.3669	-74.5761	185.583	-72.273	-5.60694	199.289	-78.0865	-22.7428	212.576	-84.5864	-38.1194	163.81	-45.6323	21.727	163.411	-35.5795	51.3401	131.874	-35.4096	33.7498	
1	0.00833333	102.779	-52.3791	41.6768	83.585	-59.4236	27.5851	63.5777	-66.6959	2.28786	46.9152	-72.6816	-8.18463	120.404	-56.3757	-31.0495	111.478	-61.7453	-58.827	109.534	-69.9445	-82.7307	147.99	-55.0523	-33.6943	149.375	-60.6898	-65.8553	153.626	-68.4823	-94.4858	167.185	-61.3868	-26.8048	179.294	-65.78	-45.1148	183.73	-72.2128	-74.2982	184.529	-73.0357	-5.06136	199.638	-78.6271	-23.6821	209.37	-85.6221	-42.8653	163.495	-46.3891	22.0036	163.614	-37.0913	51.2507	131.74	-34.9506	30.4515	
2	0.0166667	101.787	-51.2935	46.7398	83.592	-60.0373	24.9989	62.2563	-66.1715	3.28666	49.4773	-72.8091	-10.7329	120.906	-56.4067	-31.591	111.078	-60.9826	-55.1549	110.289	-68.8552	-79.8073	148.829	-55.5813	-38.7944	149.162	-60.6682	-65.4542	154.141	-69.5405	-95.7528	169.864	-62.2297	-24.8401	175.404	-65.5789	-45.9179	184.163	-73.1641	-72.7291	185.276	-72.1032	-6.40315	198.427	-79.4859	-21.1897	208.73	-84.4618	-38.9152	164.684	-46.635	20.9732	167.072	-37.4257	48.705	133.91	-34.62	31.9427	
3	0.025	100.947	-51.5247	43.6404	81.5505	-58.8619	27.6292	63.0434	-66.5487	1.56275	47.4772	-73.5195	-11.4099	119.087	-55.8645	-29.8054	111.13	-62.6398	-59.3452	111.49	-69.8282	-81.5196	152.698	-55.8681	-36.198	153.347	-61.7418	-65.9728	156.236	-70.7242	-93.4793	168.91	-60.974	-26.7796	177.838	-65.54	-49.7042	183.089	-73.4954	-73.7228	184.993	-72.344	-5.22119	196.903	-78.9493	-19.8303	211.775	-85.9917	-41.6664	162.344	-44.5798	20.1888	165.222	-38.7404	51.5366	130.464	-35.8645	28.227	
4	0.0333333	100.233	-51.2522	42.2118	82.7401	-59.6744	26.4633	63.0721	-66.679	3.02954	48.5665	-74.7833	-12.5203	120.905	-56.5385	-33.6448	111.78	-61.334	-56.5423	112.398	-70.4306	-80.6396	147.937	-55.2206	-33.4445	151.294	-62.4339	-65.9651	153.21	-69.4489	-92.3891	167.403	-62.7267	-22.0447	175.18	-66.158	-50.808	183.813	-73.2205	-75.2161	185.725	-73.6798	-2.08915	199.642	-79.3877	-23.8959	211.998	-88.0312	-41.5636	162.765	-45.5376	23.6139	168.475	-37.8255	51.3907	135.649	-36.4827	32.5484	
5	0.0416667	100.881	-53.0586	41.1603	84.647	-61.5053	25.5032	65.5565	-68.3802	6.78579	50.54	-75.4789	-9.755	118.299	-57.5043	-31.9996	116.209	-63.7989	-59.0661	106.824	-70.5646	-83.5209	150.799	-56.3796	-33.3812	154.026	-61.8201	-62.2689	153.305	-69.6626	-90.8647	167.418	-62.8694	-25.7782	177.844	-66.3237	-46.901	181.207	-73.3445	-71.5797	188.595	-74.3163	-4.81757	197.21	-79.1843	-21.0972	214.851	-87.8811	-41.8039	167.139	-48.2043	21.5254	165.808	-39.8615	48.5658	135.617	-38.0044	28.6127	
6	0.05	103.354	-54.3912	41.8542	81.5298	-59.892	26.7189	60.9485	-67.0616	4.19275	47.1899	-75.1305	-8.57467	119.921	-58.2716	-32.6963	111.241	-63.7737	-59.4928	112.406	-71.8938	-82.7039	148.684	-56.1169	-35.3587	152.007	-62.4079	-63.0623	154.597	-71.0859	-93.034	171.796	-63.7244	-25.2121	179.133	-67.5986	-47.1167	185.078	-73.9587	-71.0968	185.394	-74.7428	-3.76305	201.72	-82.1688	-21.8684	214.847	-89.3976	-42.2446	163.897	-46.3322	23.2078	163.624	-39.6854	50.1988	133.547	-38.5638	28.8108	
7	0.0583333	102.567	-53.5283	45.8247	82.2663	-60.213	26.0466	62.8889	-67.5871	4.70243	47.7241	-74.6617	-10.9237	118.5	-57.3414	-33.1864	114.609	-65.4454	-61.3278	110.092	-72.3835	-85.3298	151.471	-57.8825	-37.0111	152.937	-63.7451	-64.6838	158.502	-73.0289	-96.5408	172.992	-64.8782	-25.8343	180.924	-68.3422	-48.2932	182.955	-73.3066	-71.8849	185.908	-74.4722	-2.45722	198.363	-80.4438	-20.0032	215.44	-87.203	-39.4277	164.37	-46.1159	18.5635	164.789	-38.6071	51.7405	131.702	-36.823	31.122	
8	0.0666667	105.955	-55.1688	41.1611	83.1693	-60.7761	26.7278	66.0175	-68.0885	6.42776	49.4146	-75.2745	-8.33916	121.146	-58.6103	-34.0651	113.949	-63.7638	-59.3937	112.165	-70.8026	-80.5073	152.753	-57.6508	-35.422	154.607	-64.7218	-66.3197	155.27	-71.5169	-90.7579	169.791	-63.6077	-22.3678	177.616	-67.8092	-45.9589	185.74	-73.9832	-74.0863	188.59	-74.5444	-3.42069	198.958	-81.1988	-22.7739	215.304	-88.6586	-36.4038	169.385	-46.8622	21.0624	169.101	-40.5997	49.5398	136.013	-38.3862	32.7788	
9	0.075	104.491	-52.7831	45.8089	83.6023	-61.2596	26.3051	65.3106	-67.041	6.80046	49.4991	-74.1004	-10.3165	124.01	-57.8529	-33.8959	113.234	-63.0658	-55.4731	111.167	-71.7962	-82.6278	150.568	-56.4237	-38.2377	154.441	-64.0555	-65.9801	154.615	-70.4375	-91.6865	171.58	-63.5722	-22.0825	177.272	-67.3033	-45.9633	184.351	-73.431	-72.4596	191.331	-74.8979	-2.60469	200.601	-80.6851	-21.6315	212.423	-85.9218	-39.9954	164.627	-48.0506	23.6152	169.61	-41.5611	48.8995	138.878	-36.6444	33.5084	
10	0.0833333	107.569	-53.4707	42.3336	82.4408	-59.6924	23.9853	62.757	-67.0899	5.31871	50.5145	-75.3757	-12.2046	122.633	-56.839	-30.2983	113.358	-63.8341	-59.5418	114.902	-70.2185	-80.6459	153.353	-57.2849	-37.0835	157.046	-62.5706	-62.2001	157.159	-71.3263	-91.859	174.488	-63.2703	-25.3507	179.806	-66.421	-46.5873	185.864	-72.9684	-72.2173	192.335	-75.3134	-2.67988	200.781	-80.3007	-21.8318	214.756	-86.634	-42.8678	165.464	-47.0085	25.0654	168.704	-38.5386	52.1802	137.898	-38.5305	33.9033	
11	0.0916667	106.321	-53.3468	46.2852	88.0796	-61.0469	24.9179	64.5347	-67.7989	1.03024	49.0583	-74.9316	-14.0577	121.321	-57.5093	-33.0636	116.584	-63.5458	-59.5326	113.116	-70.9123	-83.4409	150.864	-56.4551	-34.5712	155.975	-62.2491	-64.3865	154.561	-69.6163	-93.3868	174.099	-62.4629	-24.9531	181.279	-66.7257	-46.5081	185.714	-73.814	-74.7723	189.454	-73.8869	-7.89264	203.382	-80.5363	-24.4331	216.055	-87.63	-40.9252	168.647	-47.9256	19.8803	168.512	-39.7593	50.3176	134.744	-38.5239	29.0142	
12	0.1	104.661	-52.3055	44.9286	87.2513	-60.4283	24.5126	67.1165	-67.1724	5.66045	52.0801	-73.5871	-10.7439	121.177	-56.5294	-35.498	117.589	-63.6293	-59.3279	111.21	-69.1685	-79.2119	151.764	-56.2472	-39.6638	158.262	-64.2615	-66.3654	157.931	-71.2934	-93.181	173.558	-62.6534	-26.4713	183.733	-67.4182	-49.5614	185.045	-72.6044	-74.9828	192.176	-74.1087	-6.42502	201.394	-80.4367	-23.8293	213.559	-87.3115	-42.1893	167.662	-45.6819	20.5224	168.857	-40.9474	49.5087	135.989	-35.7202	32.1176	
13	0.108333	109.103	-54.0477	42.0911	86.3227	-60.8562	24.171	68.6731	-66.9451	3.5147	52.6998	-73.9571	-9.37764	125.744	-57.8318	-32.7345	119.551	-63.3719	-59.271	113.121	-70.0331	-84.9674	156.865	-57.2271	-34.5939	158.35	-63.1675	-62.5011	160.049	-71.8193	-95.4276	176.994	-63.7558	-26.7472	178.219	-66.6151	-48.4215	187.176	-72.7257	-70.9449	192.62	-75.2888	-2.67203	204.005	-82.3677	-24.0679	212.173	-86.4414	-39.8315	167.48	-46.7743	23.678	169.928	-41.1525	48.3351	136.017	-35.9047	32.1165	
14	0.116667	106.894	-54.2199	42.014	83.4927	-60.2142	26.4235	67.3893	-67.3414	3.7834	50.5352	-74.1385	-14.792	122.836	-56.9941	-36.3066	119.179	-64.5456	-61.4644	112.358	-69.4837	-82.3697	152.427	-57.348	-37.0273	158.637	-63.2073	-61.7047	158.928	-71.1111	-94.4625	177.056	-63.9759	-25.0252	182.193	-66.7566	-51.0042	187.094	-72.9932	-75.9249	191.043	-75.4619	-3.59454	205.223	-80.9299	-19.4525	216.242	-86.5695	-41.9201	170.557	-48.0804	22.5947	167.699	-39.764	49.8998	136.615	-38.9775	28.8335	
15	0.125	105.351	-53.2695	41.129	85.5585	-61.2914	24.7356	66.1846	-67.455	4.25685	52.943	-75.1798	-11.7919	122.448	-57.0766	-35.474	116.269	-64.4998	-61.5883	111.364	-69.353	-83.0904	154.004	-58.0546	-39.1876	154.78	-63.5204	-66.6616	156.714	-69.9044	-93.5288	172.658	-63.1658	-27.2413	184.158	-66.7432	-46.1657	189.458	-73.1592	-74.0423	192.097	-75.3546	-4.20685	204.614	-81.612	-20.3957	216.034	-86.1557	-40.4243	171.93	-47.1233	23.2926	171.922	-40.3755	47.8869	136.907	-38.6853	32.0386	
16	0.133333	108.52	-55.419	42.318	84.0051	-61.5016	23.9714	67.9709	-69.3072	0.136688	51.9558	-76.7089	-14.1757	122.361	-57.9786	-36.227	114.89	-64.2221	-59.9461	114.81	-70.772	-85.3599	152.642	-56.9674	-35.963	154.744	-63.368	-63.6392	161.313	-71.4698	-91.7042	172.004	-64.0429	-22.7033	181.535	-68.0337	-49.8708	187.499	-73.6499	-75.6157	191.504	-75.5331	-1.84458	203.642	-82.706	-23.924	215.989	-87.036	-42.0388	169.566	-46.684	23.5038	171.007	-39.7149	51.3367	137.536	-39.3973	33.1156	
17	0.141667	105.473	-54.3209	40.8667	86.4406	-63.6571	21.0302	65.4472	-69.2926	4.27295	52.435	-76.3757	-10.8422	124.691	-58.4298	-36.5673	118.147	-64.4798	-60.5691	114.608	-71.208	-82.6415	155.418	-58.7567	-38.4915	157.277	-64.6613	-66.4513	157.102	-71.0225	-94.5716	171.614	-63.7792	-26.3869	183.513	-69.3817	-51.1885	185.33	-74.2906	-73.7333	190.949	-75.229	-6.77938	204.359	-82.739	-23.9543	219.059	-86.216	-37.8448	170.52	-46.7983	23.0441	170.032	-39.2904	52.8631	134.223	-38.8857	32.3716	
18	0.15	103.401	-53.1178	45.0524	85.01	-62.3003	21.8509	64.4328	-68.9907	5.34107	49.8311	-75.7179	-11.5585	121.526	-57.8518	-33.4586	117.672	-63.5421	-57.8208	116.252	-70.9166	-85.2662	152.447	-57.3414	-39.7031	157.516	-63.8593	-61.9789	161.765	-72.0285	-94.3036	175.619	-64.5798	-22.0097	180.917	-67.3809	-46.6557	186.429	-74.6147	-74.2312	189.949	-75.2039	-3.10874	203.604	-82.1249	-24.5636	216.598	-87.3792	-36.7037	166.294	-46.8014	20.8553	166.459	-41.7162	50.5837	137.067	-38.5039	31.6298	
19	0.158333	104.369	-53.6058	41.8593	87.6771	-62.5437	20.7912	68.6156	-69.453	4.70717	51.3297	-76.0924	-11.7774	122.991	-58.5815	-31.3247	116.665	-63.5541	-58.5971	111.712	-69.6786	-81.3787	157.65	-58.4654	-38.5747	158.203	-64.2561	-64.6653	160.182	-71.1785	-95.6486	175.756	-64.3211	-26.8791	179.465	-67.0768	-49.6989	187.29	-74.7975	-76.7235	188.66	-75.7168	-3.39245	203.372	-81.6887	-21.5086	215.345	-85.4845	-42.8262	166.779	-47.0646	18.7686	169.549	-40.9653	47.6812	138.146	-38.3571	33.4557	
20	0.166667	107.797	-55.428	40.2309	87.8244	-62.042	24.7342	64.1323	-68.4637	4.35663	55.084	-76.7017	-13.7305	127.194	-58.6491	-34.0498	115.863	-63.032	-58.7347	112.397	-69.9705	-82.358	153.622	-56.746	-35.3283	158.061	-62.1279	-62.201	157.672	-70.3335	-97.2363	174.542	-63.5073	-26.6408	180.374	-67.1968	-51.1066	190.27	-74.0878	-72.253	194.137	-75.9715	-3.70305	205.073	-82.4161	-19.3478	218.963	-87.5279	-38.8329	172.183	-46.9563	24.2386	171.875	-39.9535	50.7805	134.562	-39.3813	27.9811	
21	0.175	106.167	-54.0781	39.7303	88.5151	-63.5037	20.1218	64.6997	-68.4803	2.05195	53.2709	-76.2886	-10.9262	125.329	-58.1521	-37.2869	117.036	-61.688	-57.3129	113.3	-70.1214	-86.3786	155.726	-56.9091	-38.0109	155.236	-62.308	-66.842	159.597	-69.9272	-95.9471	177.871	-63.3769	-27.0664	182.277	-66.9642	-46.9527	191.059	-72.8145	-72.4692	194.777	-75.1516	-6.68016	203.959	-81.9319	-22.9792	217.139	-86.7587	-40.7362	167.057	-45.4251	23.517	170.039	-40.6655	50.5797	139.071	-38.1297	31.5672	
22	0.183333	107.737	-54.0961	40.114	90.0427	-62.9499	23.3573	67.7896	-67.9463	-1.00921	53.4103	-75.2178	-14.445	124.831	-56.8574	-36.7082	118.594	-63.4584	-60.7013	116.376	-69.2215	-84.0233	158.209	-57.7421	-34.2579	159.757	-62.9581	-63.7977	160.854	-70.4657	-97.1959	177.958	-63.7915	-22.6354	182.571	-65.946	-47.9433	192.631	-72.8033	-73.0169	192.02	-74.5086	-8.06327	206.203	-81.9104	-20.9894	215.955	-85.244	-42.8673	168.785	-45.8816	18.8599	168.374	-40.6734	52.4067	138.821	-39.3707	28.5406	
23	0.191667	106.285	-53.7574	42.8461	89.4168	-63.0902	22.5507	71.3381	-69.0794	3.07821	51.65	-74.4174	-11.6129	128.506	-57.297	-32.6961	117.357	-62.2928	-60.0059	118.262	-69.0837	-82.3457	154.912	-56.7657	-34.5054	159.635	-62.7824	-63.8989	160.876	-68.6984	-93.2296	177.075	-64.6153	-24.858	186.475	-67.1672	-50.437	189.617	-73.3368	-77.2518	193.873	-74.6371	-6.78152	202.688	-79.5534	-20.5276	218.307	-87.9972	-40.9876	171.041	-48.6019	19.3961	170.948	-39.4655	51.7828	138.852	-37.9818	32.6466	
